<mxfile host="app.diagrams.net" agent="Mozilla/5.0 (Macintosh; Intel Mac OS X 10_15_7) AppleWebKit/537.36 (KHTML, like Gecko) Chrome/138.0.0.0 Safari/537.36" version="28.0.7">
  <diagram name="Page-1" id="f_GxHbI2ts5r_WDmTcf1">
    <mxGraphModel dx="1687" dy="1927" grid="1" gridSize="10" guides="1" tooltips="1" connect="1" arrows="1" fold="1" page="1" pageScale="1" pageWidth="850" pageHeight="1100" math="0" shadow="0">
      <root>
        <mxCell id="0" />
        <mxCell id="1" parent="0" />
        <mxCell id="UQys9rM_CPTPyQWlCEaO-13" value="" style="ellipse;whiteSpace=wrap;html=1;" vertex="1" parent="1">
          <mxGeometry x="420" y="780" width="120" height="80" as="geometry" />
        </mxCell>
        <mxCell id="UQys9rM_CPTPyQWlCEaO-14" value="" style="endArrow=none;html=1;rounded=0;entryX=0.992;entryY=0.388;entryDx=0;entryDy=0;entryPerimeter=0;exitX=0.025;exitY=0.349;exitDx=0;exitDy=0;exitPerimeter=0;" edge="1" parent="1" source="UQys9rM_CPTPyQWlCEaO-13" target="UQys9rM_CPTPyQWlCEaO-13">
          <mxGeometry width="50" height="50" relative="1" as="geometry">
            <mxPoint x="540" y="980" as="sourcePoint" />
            <mxPoint x="610" y="960" as="targetPoint" />
          </mxGeometry>
        </mxCell>
        <mxCell id="UQys9rM_CPTPyQWlCEaO-15" value="2.0" style="text;html=1;align=center;verticalAlign=middle;resizable=0;points=[];autosize=1;strokeColor=none;fillColor=none;" vertex="1" parent="1">
          <mxGeometry x="460" y="780" width="40" height="30" as="geometry" />
        </mxCell>
        <mxCell id="UQys9rM_CPTPyQWlCEaO-16" value="Login" style="text;html=1;align=center;verticalAlign=middle;resizable=0;points=[];autosize=1;strokeColor=none;fillColor=none;" vertex="1" parent="1">
          <mxGeometry x="455" y="820" width="50" height="30" as="geometry" />
        </mxCell>
        <mxCell id="UQys9rM_CPTPyQWlCEaO-17" value="Admin" style="rounded=1;whiteSpace=wrap;html=1;" vertex="1" parent="1">
          <mxGeometry x="130" y="790" width="120" height="60" as="geometry" />
        </mxCell>
        <mxCell id="UQys9rM_CPTPyQWlCEaO-18" value="User" style="rounded=1;whiteSpace=wrap;html=1;" vertex="1" parent="1">
          <mxGeometry x="720" y="790" width="120" height="60" as="geometry" />
        </mxCell>
        <mxCell id="UQys9rM_CPTPyQWlCEaO-19" value="" style="endArrow=classic;html=1;rounded=0;exitX=0.997;exitY=0.163;exitDx=0;exitDy=0;entryX=0.068;entryY=0.249;entryDx=0;entryDy=0;entryPerimeter=0;exitPerimeter=0;" edge="1" parent="1" source="UQys9rM_CPTPyQWlCEaO-17" target="UQys9rM_CPTPyQWlCEaO-13">
          <mxGeometry width="50" height="50" relative="1" as="geometry">
            <mxPoint x="560" y="980" as="sourcePoint" />
            <mxPoint x="430" y="810" as="targetPoint" />
          </mxGeometry>
        </mxCell>
        <mxCell id="UQys9rM_CPTPyQWlCEaO-20" value="Login request" style="text;html=1;align=center;verticalAlign=middle;resizable=0;points=[];autosize=1;strokeColor=none;fillColor=none;" vertex="1" parent="1">
          <mxGeometry x="300" y="770" width="100" height="30" as="geometry" />
        </mxCell>
        <mxCell id="UQys9rM_CPTPyQWlCEaO-23" value="" style="endArrow=classic;html=1;rounded=0;entryX=0.018;entryY=0.639;entryDx=0;entryDy=0;entryPerimeter=0;" edge="1" parent="1" target="UQys9rM_CPTPyQWlCEaO-18">
          <mxGeometry width="50" height="50" relative="1" as="geometry">
            <mxPoint x="539" y="830" as="sourcePoint" />
            <mxPoint x="716.5" y="830" as="targetPoint" />
          </mxGeometry>
        </mxCell>
        <mxCell id="UQys9rM_CPTPyQWlCEaO-25" value="" style="endArrow=classic;html=1;rounded=0;exitX=0;exitY=0.25;exitDx=0;exitDy=0;entryX=0.949;entryY=0.312;entryDx=0;entryDy=0;entryPerimeter=0;" edge="1" parent="1" source="UQys9rM_CPTPyQWlCEaO-18" target="UQys9rM_CPTPyQWlCEaO-13">
          <mxGeometry width="50" height="50" relative="1" as="geometry">
            <mxPoint x="260" y="810" as="sourcePoint" />
            <mxPoint x="438" y="810" as="targetPoint" />
          </mxGeometry>
        </mxCell>
        <mxCell id="UQys9rM_CPTPyQWlCEaO-26" value="" style="endArrow=classic;html=1;rounded=0;entryX=0.949;entryY=0.312;entryDx=0;entryDy=0;entryPerimeter=0;exitX=0.044;exitY=0.698;exitDx=0;exitDy=0;exitPerimeter=0;" edge="1" parent="1" source="UQys9rM_CPTPyQWlCEaO-13">
          <mxGeometry width="50" height="50" relative="1" as="geometry">
            <mxPoint x="410" y="835" as="sourcePoint" />
            <mxPoint x="250" y="834.55" as="targetPoint" />
          </mxGeometry>
        </mxCell>
        <mxCell id="UQys9rM_CPTPyQWlCEaO-27" value="Login request" style="text;html=1;align=center;verticalAlign=middle;resizable=0;points=[];autosize=1;strokeColor=none;fillColor=none;" vertex="1" parent="1">
          <mxGeometry x="577.5" y="770" width="100" height="30" as="geometry" />
        </mxCell>
        <mxCell id="UQys9rM_CPTPyQWlCEaO-28" value="Login response" style="text;html=1;align=center;verticalAlign=middle;resizable=0;points=[];autosize=1;strokeColor=none;fillColor=none;" vertex="1" parent="1">
          <mxGeometry x="295" y="830" width="110" height="30" as="geometry" />
        </mxCell>
        <mxCell id="UQys9rM_CPTPyQWlCEaO-29" value="Login response" style="text;html=1;align=center;verticalAlign=middle;resizable=0;points=[];autosize=1;strokeColor=none;fillColor=none;" vertex="1" parent="1">
          <mxGeometry x="570" y="830" width="110" height="30" as="geometry" />
        </mxCell>
        <mxCell id="UQys9rM_CPTPyQWlCEaO-30" value="" style="ellipse;whiteSpace=wrap;html=1;" vertex="1" parent="1">
          <mxGeometry x="720" y="590" width="120" height="80" as="geometry" />
        </mxCell>
        <mxCell id="UQys9rM_CPTPyQWlCEaO-31" value="" style="endArrow=none;html=1;rounded=0;entryX=0.992;entryY=0.388;entryDx=0;entryDy=0;entryPerimeter=0;exitX=0.025;exitY=0.349;exitDx=0;exitDy=0;exitPerimeter=0;" edge="1" source="UQys9rM_CPTPyQWlCEaO-30" target="UQys9rM_CPTPyQWlCEaO-30" parent="1">
          <mxGeometry width="50" height="50" relative="1" as="geometry">
            <mxPoint x="840" y="790" as="sourcePoint" />
            <mxPoint x="910" y="770" as="targetPoint" />
          </mxGeometry>
        </mxCell>
        <mxCell id="UQys9rM_CPTPyQWlCEaO-32" value="1.0" style="text;html=1;align=center;verticalAlign=middle;resizable=0;points=[];autosize=1;strokeColor=none;fillColor=none;" vertex="1" parent="1">
          <mxGeometry x="760" y="590" width="40" height="30" as="geometry" />
        </mxCell>
        <mxCell id="UQys9rM_CPTPyQWlCEaO-33" value="Registration" style="text;html=1;align=center;verticalAlign=middle;resizable=0;points=[];autosize=1;strokeColor=none;fillColor=none;" vertex="1" parent="1">
          <mxGeometry x="735" y="630" width="90" height="30" as="geometry" />
        </mxCell>
        <mxCell id="UQys9rM_CPTPyQWlCEaO-34" style="edgeStyle=orthogonalEdgeStyle;rounded=0;orthogonalLoop=1;jettySize=auto;html=1;" edge="1" parent="1">
          <mxGeometry relative="1" as="geometry">
            <mxPoint x="760" y="790" as="sourcePoint" />
            <mxPoint x="760" y="662" as="targetPoint" />
          </mxGeometry>
        </mxCell>
        <mxCell id="UQys9rM_CPTPyQWlCEaO-35" style="edgeStyle=orthogonalEdgeStyle;rounded=0;orthogonalLoop=1;jettySize=auto;html=1;exitX=0.652;exitY=1.016;exitDx=0;exitDy=0;entryX=0.652;entryY=-0.067;entryDx=0;entryDy=0;entryPerimeter=0;exitPerimeter=0;" edge="1" parent="1" source="UQys9rM_CPTPyQWlCEaO-30" target="UQys9rM_CPTPyQWlCEaO-18">
          <mxGeometry relative="1" as="geometry" />
        </mxCell>
        <mxCell id="UQys9rM_CPTPyQWlCEaO-36" value="Request" style="text;html=1;align=center;verticalAlign=middle;resizable=0;points=[];autosize=1;strokeColor=none;fillColor=none;" vertex="1" parent="1">
          <mxGeometry x="677.5" y="698" width="70" height="30" as="geometry" />
        </mxCell>
        <mxCell id="UQys9rM_CPTPyQWlCEaO-37" value="Request" style="text;html=1;align=center;verticalAlign=middle;resizable=0;points=[];autosize=1;strokeColor=none;fillColor=none;" vertex="1" parent="1">
          <mxGeometry x="800" y="698" width="70" height="30" as="geometry" />
        </mxCell>
        <mxCell id="UQys9rM_CPTPyQWlCEaO-71" style="edgeStyle=orthogonalEdgeStyle;rounded=0;orthogonalLoop=1;jettySize=auto;html=1;entryX=0.5;entryY=1;entryDx=0;entryDy=0;exitX=0.956;exitY=0.752;exitDx=0;exitDy=0;exitPerimeter=0;" edge="1" parent="1" source="UQys9rM_CPTPyQWlCEaO-59" target="UQys9rM_CPTPyQWlCEaO-18">
          <mxGeometry relative="1" as="geometry" />
        </mxCell>
        <mxCell id="UQys9rM_CPTPyQWlCEaO-86" style="edgeStyle=orthogonalEdgeStyle;rounded=0;orthogonalLoop=1;jettySize=auto;html=1;entryX=0.5;entryY=1;entryDx=0;entryDy=0;" edge="1" parent="1" source="UQys9rM_CPTPyQWlCEaO-59" target="UQys9rM_CPTPyQWlCEaO-79">
          <mxGeometry relative="1" as="geometry" />
        </mxCell>
        <mxCell id="UQys9rM_CPTPyQWlCEaO-59" value="" style="ellipse;whiteSpace=wrap;html=1;" vertex="1" parent="1">
          <mxGeometry x="420" y="890" width="120" height="80" as="geometry" />
        </mxCell>
        <mxCell id="UQys9rM_CPTPyQWlCEaO-60" value="" style="endArrow=none;html=1;rounded=0;entryX=0.992;entryY=0.388;entryDx=0;entryDy=0;entryPerimeter=0;exitX=0.025;exitY=0.349;exitDx=0;exitDy=0;exitPerimeter=0;" edge="1" source="UQys9rM_CPTPyQWlCEaO-59" target="UQys9rM_CPTPyQWlCEaO-59" parent="1">
          <mxGeometry width="50" height="50" relative="1" as="geometry">
            <mxPoint x="540" y="1090" as="sourcePoint" />
            <mxPoint x="610" y="1070" as="targetPoint" />
          </mxGeometry>
        </mxCell>
        <mxCell id="UQys9rM_CPTPyQWlCEaO-61" value="3.0" style="text;html=1;align=center;verticalAlign=middle;resizable=0;points=[];autosize=1;strokeColor=none;fillColor=none;" vertex="1" parent="1">
          <mxGeometry x="460" y="890" width="40" height="30" as="geometry" />
        </mxCell>
        <mxCell id="UQys9rM_CPTPyQWlCEaO-76" style="edgeStyle=orthogonalEdgeStyle;rounded=0;orthogonalLoop=1;jettySize=auto;html=1;entryX=0;entryY=0.25;entryDx=0;entryDy=0;exitX=0.5;exitY=1;exitDx=0;exitDy=0;" edge="1" parent="1" source="UQys9rM_CPTPyQWlCEaO-59" target="UQys9rM_CPTPyQWlCEaO-72">
          <mxGeometry relative="1" as="geometry">
            <mxPoint x="483" y="1007" as="sourcePoint" />
            <Array as="points">
              <mxPoint x="480" y="1020" />
              <mxPoint x="483" y="1020" />
            </Array>
          </mxGeometry>
        </mxCell>
        <mxCell id="UQys9rM_CPTPyQWlCEaO-62" value="Upload file" style="text;html=1;align=center;verticalAlign=middle;resizable=0;points=[];autosize=1;strokeColor=none;fillColor=none;" vertex="1" parent="1">
          <mxGeometry x="440" y="930" width="80" height="30" as="geometry" />
        </mxCell>
        <mxCell id="UQys9rM_CPTPyQWlCEaO-64" value="request to upload file" style="text;html=1;align=center;verticalAlign=middle;resizable=0;points=[];autosize=1;strokeColor=none;fillColor=none;" vertex="1" parent="1">
          <mxGeometry x="555" y="890" width="130" height="30" as="geometry" />
        </mxCell>
        <mxCell id="UQys9rM_CPTPyQWlCEaO-66" value="upload response" style="text;html=1;align=center;verticalAlign=middle;resizable=0;points=[];autosize=1;strokeColor=none;fillColor=none;" vertex="1" parent="1">
          <mxGeometry x="570" y="940" width="110" height="30" as="geometry" />
        </mxCell>
        <mxCell id="UQys9rM_CPTPyQWlCEaO-70" style="edgeStyle=orthogonalEdgeStyle;rounded=0;orthogonalLoop=1;jettySize=auto;html=1;exitX=0.25;exitY=1;exitDx=0;exitDy=0;entryX=0.98;entryY=0.383;entryDx=0;entryDy=0;entryPerimeter=0;" edge="1" parent="1" source="UQys9rM_CPTPyQWlCEaO-18" target="UQys9rM_CPTPyQWlCEaO-59">
          <mxGeometry relative="1" as="geometry">
            <Array as="points">
              <mxPoint x="750" y="920" />
              <mxPoint x="538" y="920" />
            </Array>
          </mxGeometry>
        </mxCell>
        <mxCell id="UQys9rM_CPTPyQWlCEaO-72" value="file db" style="html=1;dashed=0;whiteSpace=wrap;shape=partialRectangle;right=0;left=0;" vertex="1" parent="1">
          <mxGeometry x="722.8" y="1007" width="120" height="50" as="geometry" />
        </mxCell>
        <mxCell id="UQys9rM_CPTPyQWlCEaO-74" style="edgeStyle=orthogonalEdgeStyle;rounded=0;orthogonalLoop=1;jettySize=auto;html=1;exitX=0;exitY=0.75;exitDx=0;exitDy=0;entryX=0.295;entryY=0.993;entryDx=0;entryDy=0;entryPerimeter=0;" edge="1" parent="1" source="UQys9rM_CPTPyQWlCEaO-72" target="UQys9rM_CPTPyQWlCEaO-59">
          <mxGeometry relative="1" as="geometry">
            <mxPoint x="567.8" y="1037" as="sourcePoint" />
            <mxPoint x="455.04000000000025" y="1000" as="targetPoint" />
            <Array as="points">
              <mxPoint x="568" y="1045" />
              <mxPoint x="455" y="1044" />
            </Array>
          </mxGeometry>
        </mxCell>
        <mxCell id="UQys9rM_CPTPyQWlCEaO-77" value="insert reqeust" style="text;html=1;align=center;verticalAlign=middle;resizable=0;points=[];autosize=1;strokeColor=none;fillColor=none;" vertex="1" parent="1">
          <mxGeometry x="550" y="990" width="100" height="30" as="geometry" />
        </mxCell>
        <mxCell id="UQys9rM_CPTPyQWlCEaO-78" value="response" style="text;html=1;align=center;verticalAlign=middle;resizable=0;points=[];autosize=1;strokeColor=none;fillColor=none;" vertex="1" parent="1">
          <mxGeometry x="565" y="1038" width="70" height="30" as="geometry" />
        </mxCell>
        <mxCell id="UQys9rM_CPTPyQWlCEaO-84" style="edgeStyle=orthogonalEdgeStyle;rounded=0;orthogonalLoop=1;jettySize=auto;html=1;exitX=0.75;exitY=1;exitDx=0;exitDy=0;entryX=0;entryY=0;entryDx=0;entryDy=0;" edge="1" parent="1" source="UQys9rM_CPTPyQWlCEaO-79" target="UQys9rM_CPTPyQWlCEaO-59">
          <mxGeometry relative="1" as="geometry">
            <Array as="points">
              <mxPoint x="220" y="902" />
            </Array>
          </mxGeometry>
        </mxCell>
        <mxCell id="UQys9rM_CPTPyQWlCEaO-105" style="edgeStyle=orthogonalEdgeStyle;rounded=0;orthogonalLoop=1;jettySize=auto;html=1;exitX=0.25;exitY=1;exitDx=0;exitDy=0;entryX=0;entryY=0;entryDx=0;entryDy=0;" edge="1" parent="1" source="UQys9rM_CPTPyQWlCEaO-79" target="UQys9rM_CPTPyQWlCEaO-88">
          <mxGeometry relative="1" as="geometry">
            <Array as="points">
              <mxPoint x="160" y="1102" />
            </Array>
          </mxGeometry>
        </mxCell>
        <mxCell id="UQys9rM_CPTPyQWlCEaO-79" value="Admin" style="rounded=0;whiteSpace=wrap;html=1;" vertex="1" parent="1">
          <mxGeometry x="130" y="790" width="120" height="60" as="geometry" />
        </mxCell>
        <mxCell id="UQys9rM_CPTPyQWlCEaO-99" style="edgeStyle=orthogonalEdgeStyle;rounded=0;orthogonalLoop=1;jettySize=auto;html=1;exitX=0.75;exitY=1;exitDx=0;exitDy=0;entryX=0.5;entryY=1;entryDx=0;entryDy=0;" edge="1" parent="1" source="UQys9rM_CPTPyQWlCEaO-80" target="UQys9rM_CPTPyQWlCEaO-88">
          <mxGeometry relative="1" as="geometry">
            <Array as="points">
              <mxPoint x="810" y="990" />
              <mxPoint x="850" y="990" />
              <mxPoint x="850" y="1190" />
              <mxPoint x="480" y="1190" />
            </Array>
          </mxGeometry>
        </mxCell>
        <mxCell id="UQys9rM_CPTPyQWlCEaO-80" value="User" style="rounded=0;whiteSpace=wrap;html=1;" vertex="1" parent="1">
          <mxGeometry x="720" y="790" width="120" height="60" as="geometry" />
        </mxCell>
        <mxCell id="UQys9rM_CPTPyQWlCEaO-85" value="request to upload file" style="text;html=1;align=center;verticalAlign=middle;resizable=0;points=[];autosize=1;strokeColor=none;fillColor=none;" vertex="1" parent="1">
          <mxGeometry x="290" y="880" width="130" height="30" as="geometry" />
        </mxCell>
        <mxCell id="UQys9rM_CPTPyQWlCEaO-87" value="upload response" style="text;html=1;align=center;verticalAlign=middle;resizable=0;points=[];autosize=1;strokeColor=none;fillColor=none;" vertex="1" parent="1">
          <mxGeometry x="292.5" y="920" width="110" height="30" as="geometry" />
        </mxCell>
        <mxCell id="UQys9rM_CPTPyQWlCEaO-92" style="edgeStyle=orthogonalEdgeStyle;rounded=0;orthogonalLoop=1;jettySize=auto;html=1;entryX=0.25;entryY=1;entryDx=0;entryDy=0;" edge="1" parent="1" source="UQys9rM_CPTPyQWlCEaO-88" target="UQys9rM_CPTPyQWlCEaO-72">
          <mxGeometry relative="1" as="geometry" />
        </mxCell>
        <mxCell id="UQys9rM_CPTPyQWlCEaO-100" style="edgeStyle=orthogonalEdgeStyle;rounded=0;orthogonalLoop=1;jettySize=auto;html=1;exitX=0.371;exitY=0.976;exitDx=0;exitDy=0;entryX=0.915;entryY=1.004;entryDx=0;entryDy=0;entryPerimeter=0;exitPerimeter=0;" edge="1" parent="1" source="UQys9rM_CPTPyQWlCEaO-88" target="UQys9rM_CPTPyQWlCEaO-80">
          <mxGeometry relative="1" as="geometry">
            <mxPoint x="830" y="860" as="targetPoint" />
            <Array as="points">
              <mxPoint x="464" y="1210" />
              <mxPoint x="870" y="1210" />
              <mxPoint x="870" y="970" />
              <mxPoint x="830" y="970" />
            </Array>
          </mxGeometry>
        </mxCell>
        <mxCell id="UQys9rM_CPTPyQWlCEaO-88" value="" style="ellipse;whiteSpace=wrap;html=1;" vertex="1" parent="1">
          <mxGeometry x="420" y="1090" width="120" height="80" as="geometry" />
        </mxCell>
        <mxCell id="UQys9rM_CPTPyQWlCEaO-89" value="" style="endArrow=none;html=1;rounded=0;entryX=0.992;entryY=0.388;entryDx=0;entryDy=0;entryPerimeter=0;exitX=0.025;exitY=0.349;exitDx=0;exitDy=0;exitPerimeter=0;" edge="1" source="UQys9rM_CPTPyQWlCEaO-88" target="UQys9rM_CPTPyQWlCEaO-88" parent="1">
          <mxGeometry width="50" height="50" relative="1" as="geometry">
            <mxPoint x="540" y="1290" as="sourcePoint" />
            <mxPoint x="610" y="1270" as="targetPoint" />
          </mxGeometry>
        </mxCell>
        <mxCell id="UQys9rM_CPTPyQWlCEaO-90" value="4.0" style="text;html=1;align=center;verticalAlign=middle;resizable=0;points=[];autosize=1;strokeColor=none;fillColor=none;" vertex="1" parent="1">
          <mxGeometry x="460" y="1090" width="40" height="30" as="geometry" />
        </mxCell>
        <mxCell id="UQys9rM_CPTPyQWlCEaO-91" value="view file" style="text;html=1;align=center;verticalAlign=middle;resizable=0;points=[];autosize=1;strokeColor=none;fillColor=none;" vertex="1" parent="1">
          <mxGeometry x="445" y="1130" width="70" height="30" as="geometry" />
        </mxCell>
        <mxCell id="UQys9rM_CPTPyQWlCEaO-93" style="edgeStyle=orthogonalEdgeStyle;rounded=0;orthogonalLoop=1;jettySize=auto;html=1;exitX=0.5;exitY=1;exitDx=0;exitDy=0;entryX=0.95;entryY=0.726;entryDx=0;entryDy=0;entryPerimeter=0;" edge="1" parent="1" source="UQys9rM_CPTPyQWlCEaO-72" target="UQys9rM_CPTPyQWlCEaO-88">
          <mxGeometry relative="1" as="geometry">
            <Array as="points">
              <mxPoint x="783" y="1145" />
              <mxPoint x="550" y="1145" />
              <mxPoint x="550" y="1148" />
            </Array>
          </mxGeometry>
        </mxCell>
        <mxCell id="UQys9rM_CPTPyQWlCEaO-94" value="get request" style="text;html=1;align=center;verticalAlign=middle;resizable=0;points=[];autosize=1;strokeColor=none;fillColor=none;" vertex="1" parent="1">
          <mxGeometry x="565" y="1100" width="80" height="30" as="geometry" />
        </mxCell>
        <mxCell id="UQys9rM_CPTPyQWlCEaO-95" value="response" style="text;html=1;align=center;verticalAlign=middle;resizable=0;points=[];autosize=1;strokeColor=none;fillColor=none;" vertex="1" parent="1">
          <mxGeometry x="567.5" y="1140" width="70" height="30" as="geometry" />
        </mxCell>
        <mxCell id="UQys9rM_CPTPyQWlCEaO-101" value="request to view file" style="text;html=1;align=center;verticalAlign=middle;resizable=0;points=[];autosize=1;strokeColor=none;fillColor=none;" vertex="1" parent="1">
          <mxGeometry x="670" y="1158" width="120" height="30" as="geometry" />
        </mxCell>
        <mxCell id="UQys9rM_CPTPyQWlCEaO-103" value="response" style="text;html=1;align=center;verticalAlign=middle;resizable=0;points=[];autosize=1;strokeColor=none;fillColor=none;" vertex="1" parent="1">
          <mxGeometry x="695" y="1200" width="70" height="30" as="geometry" />
        </mxCell>
        <mxCell id="UQys9rM_CPTPyQWlCEaO-106" style="edgeStyle=orthogonalEdgeStyle;rounded=0;orthogonalLoop=1;jettySize=auto;html=1;exitX=0;exitY=0.5;exitDx=0;exitDy=0;entryX=0.104;entryY=1.056;entryDx=0;entryDy=0;entryPerimeter=0;" edge="1" parent="1" source="UQys9rM_CPTPyQWlCEaO-88" target="UQys9rM_CPTPyQWlCEaO-79">
          <mxGeometry relative="1" as="geometry" />
        </mxCell>
        <mxCell id="UQys9rM_CPTPyQWlCEaO-107" value="request to view file" style="text;html=1;align=center;verticalAlign=middle;resizable=0;points=[];autosize=1;strokeColor=none;fillColor=none;" vertex="1" parent="1">
          <mxGeometry x="210" y="1070" width="120" height="30" as="geometry" />
        </mxCell>
        <mxCell id="UQys9rM_CPTPyQWlCEaO-108" value="response" style="text;html=1;align=center;verticalAlign=middle;resizable=0;points=[];autosize=1;strokeColor=none;fillColor=none;" vertex="1" parent="1">
          <mxGeometry x="235" y="1130" width="70" height="30" as="geometry" />
        </mxCell>
        <mxCell id="UQys9rM_CPTPyQWlCEaO-126" style="edgeStyle=orthogonalEdgeStyle;rounded=0;orthogonalLoop=1;jettySize=auto;html=1;exitX=0.983;exitY=0.332;exitDx=0;exitDy=0;entryX=0;entryY=0.25;entryDx=0;entryDy=0;exitPerimeter=0;" edge="1" parent="1" source="UQys9rM_CPTPyQWlCEaO-117" target="UQys9rM_CPTPyQWlCEaO-125">
          <mxGeometry relative="1" as="geometry" />
        </mxCell>
        <mxCell id="UQys9rM_CPTPyQWlCEaO-117" value="" style="ellipse;whiteSpace=wrap;html=1;" vertex="1" parent="1">
          <mxGeometry x="425" y="1250" width="120" height="80" as="geometry" />
        </mxCell>
        <mxCell id="UQys9rM_CPTPyQWlCEaO-118" value="" style="endArrow=none;html=1;rounded=0;entryX=0.992;entryY=0.388;entryDx=0;entryDy=0;entryPerimeter=0;exitX=0.025;exitY=0.349;exitDx=0;exitDy=0;exitPerimeter=0;" edge="1" source="UQys9rM_CPTPyQWlCEaO-117" target="UQys9rM_CPTPyQWlCEaO-117" parent="1">
          <mxGeometry width="50" height="50" relative="1" as="geometry">
            <mxPoint x="545" y="1450" as="sourcePoint" />
            <mxPoint x="615" y="1430" as="targetPoint" />
          </mxGeometry>
        </mxCell>
        <mxCell id="UQys9rM_CPTPyQWlCEaO-119" value="5.0" style="text;html=1;align=center;verticalAlign=middle;resizable=0;points=[];autosize=1;strokeColor=none;fillColor=none;" vertex="1" parent="1">
          <mxGeometry x="465" y="1250" width="40" height="30" as="geometry" />
        </mxCell>
        <mxCell id="UQys9rM_CPTPyQWlCEaO-123" style="edgeStyle=orthogonalEdgeStyle;rounded=0;orthogonalLoop=1;jettySize=auto;html=1;entryX=0;entryY=0.25;entryDx=0;entryDy=0;exitX=0;exitY=0.5;exitDx=0;exitDy=0;" edge="1" parent="1" source="UQys9rM_CPTPyQWlCEaO-117" target="UQys9rM_CPTPyQWlCEaO-79">
          <mxGeometry relative="1" as="geometry">
            <Array as="points">
              <mxPoint x="80" y="1290" />
              <mxPoint x="80" y="805" />
            </Array>
          </mxGeometry>
        </mxCell>
        <mxCell id="UQys9rM_CPTPyQWlCEaO-120" value="set role" style="text;html=1;align=center;verticalAlign=middle;resizable=0;points=[];autosize=1;strokeColor=none;fillColor=none;" vertex="1" parent="1">
          <mxGeometry x="455" y="1290" width="60" height="30" as="geometry" />
        </mxCell>
        <mxCell id="UQys9rM_CPTPyQWlCEaO-121" style="edgeStyle=orthogonalEdgeStyle;rounded=0;orthogonalLoop=1;jettySize=auto;html=1;entryX=0.089;entryY=0.174;entryDx=0;entryDy=0;entryPerimeter=0;" edge="1" parent="1" source="UQys9rM_CPTPyQWlCEaO-79" target="UQys9rM_CPTPyQWlCEaO-117">
          <mxGeometry relative="1" as="geometry">
            <Array as="points">
              <mxPoint x="110" y="820" />
              <mxPoint x="110" y="1264" />
            </Array>
          </mxGeometry>
        </mxCell>
        <mxCell id="UQys9rM_CPTPyQWlCEaO-122" value="requesst to update role" style="text;html=1;align=center;verticalAlign=middle;resizable=0;points=[];autosize=1;strokeColor=none;fillColor=none;" vertex="1" parent="1">
          <mxGeometry x="170" y="1240" width="150" height="30" as="geometry" />
        </mxCell>
        <mxCell id="UQys9rM_CPTPyQWlCEaO-124" value="response" style="text;html=1;align=center;verticalAlign=middle;resizable=0;points=[];autosize=1;strokeColor=none;fillColor=none;" vertex="1" parent="1">
          <mxGeometry x="185" y="1298" width="70" height="30" as="geometry" />
        </mxCell>
        <mxCell id="UQys9rM_CPTPyQWlCEaO-125" value="user" style="html=1;dashed=0;whiteSpace=wrap;shape=partialRectangle;right=0;left=0;" vertex="1" parent="1">
          <mxGeometry x="735" y="1265" width="120" height="50" as="geometry" />
        </mxCell>
        <mxCell id="UQys9rM_CPTPyQWlCEaO-127" value="request" style="text;html=1;align=center;verticalAlign=middle;resizable=0;points=[];autosize=1;strokeColor=none;fillColor=none;" vertex="1" parent="1">
          <mxGeometry x="645" y="1250" width="60" height="30" as="geometry" />
        </mxCell>
        <mxCell id="UQys9rM_CPTPyQWlCEaO-128" style="edgeStyle=orthogonalEdgeStyle;rounded=0;orthogonalLoop=1;jettySize=auto;html=1;entryX=1;entryY=0.5;entryDx=0;entryDy=0;" edge="1" parent="1" source="UQys9rM_CPTPyQWlCEaO-125" target="UQys9rM_CPTPyQWlCEaO-117">
          <mxGeometry relative="1" as="geometry" />
        </mxCell>
        <mxCell id="UQys9rM_CPTPyQWlCEaO-129" value="response" style="text;html=1;align=center;verticalAlign=middle;resizable=0;points=[];autosize=1;strokeColor=none;fillColor=none;" vertex="1" parent="1">
          <mxGeometry x="635" y="1288" width="70" height="30" as="geometry" />
        </mxCell>
        <mxCell id="UQys9rM_CPTPyQWlCEaO-130" value="1 LEVEL DFD" style="text;html=1;align=center;verticalAlign=middle;resizable=0;points=[];autosize=1;strokeColor=none;fillColor=none;" vertex="1" parent="1">
          <mxGeometry x="390" y="668" width="100" height="30" as="geometry" />
        </mxCell>
        <mxCell id="UQys9rM_CPTPyQWlCEaO-131" value="user" style="rounded=0;whiteSpace=wrap;html=1;" vertex="1" parent="1">
          <mxGeometry x="557.5" y="60" width="120" height="60" as="geometry" />
        </mxCell>
        <mxCell id="UQys9rM_CPTPyQWlCEaO-133" value="admin" style="rounded=0;whiteSpace=wrap;html=1;" vertex="1" parent="1">
          <mxGeometry x="200" y="60" width="120" height="60" as="geometry" />
        </mxCell>
        <mxCell id="UQys9rM_CPTPyQWlCEaO-134" value="Manage" style="rhombus;whiteSpace=wrap;html=1;" vertex="1" parent="1">
          <mxGeometry x="400" y="50" width="80" height="80" as="geometry" />
        </mxCell>
        <mxCell id="UQys9rM_CPTPyQWlCEaO-135" value="1" style="endArrow=none;html=1;rounded=0;exitX=1.002;exitY=0.332;exitDx=0;exitDy=0;exitPerimeter=0;" edge="1" parent="1" source="UQys9rM_CPTPyQWlCEaO-133">
          <mxGeometry x="0.1085" y="10" width="50" height="50" relative="1" as="geometry">
            <mxPoint x="450" y="260" as="sourcePoint" />
            <mxPoint x="410" y="80" as="targetPoint" />
            <mxPoint as="offset" />
          </mxGeometry>
        </mxCell>
        <mxCell id="UQys9rM_CPTPyQWlCEaO-136" value="" style="endArrow=none;html=1;rounded=0;" edge="1" parent="1">
          <mxGeometry width="50" height="50" relative="1" as="geometry">
            <mxPoint x="470" y="80" as="sourcePoint" />
            <mxPoint x="557.5" y="80" as="targetPoint" />
          </mxGeometry>
        </mxCell>
        <mxCell id="UQys9rM_CPTPyQWlCEaO-172" value="M" style="edgeLabel;html=1;align=center;verticalAlign=middle;resizable=0;points=[];" vertex="1" connectable="0" parent="UQys9rM_CPTPyQWlCEaO-136">
          <mxGeometry x="-0.1615" relative="1" as="geometry">
            <mxPoint x="-1" y="-10" as="offset" />
          </mxGeometry>
        </mxCell>
        <mxCell id="UQys9rM_CPTPyQWlCEaO-137" value="File" style="whiteSpace=wrap;html=1;" vertex="1" parent="1">
          <mxGeometry x="380" y="220" width="120" height="60" as="geometry" />
        </mxCell>
        <mxCell id="UQys9rM_CPTPyQWlCEaO-139" value="" style="endArrow=none;html=1;rounded=0;entryX=0.5;entryY=0;entryDx=0;entryDy=0;exitX=0.5;exitY=1;exitDx=0;exitDy=0;" edge="1" parent="1" source="UQys9rM_CPTPyQWlCEaO-134" target="UQys9rM_CPTPyQWlCEaO-137">
          <mxGeometry width="50" height="50" relative="1" as="geometry">
            <mxPoint x="390" y="180" as="sourcePoint" />
            <mxPoint x="477.5" y="180" as="targetPoint" />
          </mxGeometry>
        </mxCell>
        <mxCell id="UQys9rM_CPTPyQWlCEaO-173" value="M" style="edgeLabel;html=1;align=center;verticalAlign=middle;resizable=0;points=[];" vertex="1" connectable="0" parent="UQys9rM_CPTPyQWlCEaO-139">
          <mxGeometry x="-0.0713" relative="1" as="geometry">
            <mxPoint x="10" as="offset" />
          </mxGeometry>
        </mxCell>
        <mxCell id="UQys9rM_CPTPyQWlCEaO-142" value="user_id" style="ellipse;whiteSpace=wrap;html=1;rounded=0;" vertex="1" parent="1">
          <mxGeometry x="577.5" y="-90" width="80" height="50" as="geometry" />
        </mxCell>
        <mxCell id="UQys9rM_CPTPyQWlCEaO-144" value="name" style="ellipse;whiteSpace=wrap;html=1;rounded=0;" vertex="1" parent="1">
          <mxGeometry x="677.5" y="-60" width="80" height="50" as="geometry" />
        </mxCell>
        <mxCell id="UQys9rM_CPTPyQWlCEaO-145" value="email" style="ellipse;whiteSpace=wrap;html=1;rounded=0;" vertex="1" parent="1">
          <mxGeometry x="720" y="10" width="80" height="50" as="geometry" />
        </mxCell>
        <mxCell id="UQys9rM_CPTPyQWlCEaO-146" value="password" style="ellipse;whiteSpace=wrap;html=1;rounded=0;" vertex="1" parent="1">
          <mxGeometry x="740" y="90" width="80" height="50" as="geometry" />
        </mxCell>
        <mxCell id="UQys9rM_CPTPyQWlCEaO-147" value="" style="endArrow=none;html=1;rounded=0;entryX=0.5;entryY=0;entryDx=0;entryDy=0;exitX=0.5;exitY=1;exitDx=0;exitDy=0;" edge="1" parent="1" source="UQys9rM_CPTPyQWlCEaO-142" target="UQys9rM_CPTPyQWlCEaO-131">
          <mxGeometry width="50" height="50" relative="1" as="geometry">
            <mxPoint x="480" y="90" as="sourcePoint" />
            <mxPoint x="567.5" y="90" as="targetPoint" />
          </mxGeometry>
        </mxCell>
        <mxCell id="UQys9rM_CPTPyQWlCEaO-149" value="" style="endArrow=none;html=1;rounded=0;exitX=0.5;exitY=1;exitDx=0;exitDy=0;" edge="1" parent="1" source="UQys9rM_CPTPyQWlCEaO-144">
          <mxGeometry width="50" height="50" relative="1" as="geometry">
            <mxPoint x="628" y="-30" as="sourcePoint" />
            <mxPoint x="640" y="60" as="targetPoint" />
          </mxGeometry>
        </mxCell>
        <mxCell id="UQys9rM_CPTPyQWlCEaO-150" value="" style="endArrow=none;html=1;rounded=0;entryX=1;entryY=0.25;entryDx=0;entryDy=0;" edge="1" parent="1" source="UQys9rM_CPTPyQWlCEaO-145" target="UQys9rM_CPTPyQWlCEaO-131">
          <mxGeometry width="50" height="50" relative="1" as="geometry">
            <mxPoint x="728" as="sourcePoint" />
            <mxPoint x="650" y="70" as="targetPoint" />
          </mxGeometry>
        </mxCell>
        <mxCell id="UQys9rM_CPTPyQWlCEaO-151" value="" style="endArrow=none;html=1;rounded=0;exitX=0;exitY=0.5;exitDx=0;exitDy=0;" edge="1" parent="1" source="UQys9rM_CPTPyQWlCEaO-146">
          <mxGeometry width="50" height="50" relative="1" as="geometry">
            <mxPoint x="743" y="63" as="sourcePoint" />
            <mxPoint x="680" y="100" as="targetPoint" />
          </mxGeometry>
        </mxCell>
        <mxCell id="UQys9rM_CPTPyQWlCEaO-152" value="file" style="rounded=0;whiteSpace=wrap;html=1;" vertex="1" parent="1">
          <mxGeometry x="380" y="220" width="120" height="60" as="geometry" />
        </mxCell>
        <mxCell id="UQys9rM_CPTPyQWlCEaO-154" value="file_id" style="ellipse;whiteSpace=wrap;html=1;rounded=0;" vertex="1" parent="1">
          <mxGeometry x="610" y="260" width="80" height="50" as="geometry" />
        </mxCell>
        <mxCell id="UQys9rM_CPTPyQWlCEaO-155" value="file_type" style="ellipse;whiteSpace=wrap;html=1;rounded=0;" vertex="1" parent="1">
          <mxGeometry x="530" y="350" width="80" height="50" as="geometry" />
        </mxCell>
        <mxCell id="UQys9rM_CPTPyQWlCEaO-156" value="file_size" style="ellipse;whiteSpace=wrap;html=1;rounded=0;" vertex="1" parent="1">
          <mxGeometry x="390" y="370" width="100" height="50" as="geometry" />
        </mxCell>
        <mxCell id="UQys9rM_CPTPyQWlCEaO-158" value="" style="endArrow=none;html=1;rounded=0;exitX=0;exitY=0.5;exitDx=0;exitDy=0;entryX=1;entryY=0.5;entryDx=0;entryDy=0;" edge="1" source="UQys9rM_CPTPyQWlCEaO-154" parent="1" target="UQys9rM_CPTPyQWlCEaO-152">
          <mxGeometry width="50" height="50" relative="1" as="geometry">
            <mxPoint x="450.5" y="130" as="sourcePoint" />
            <mxPoint x="462.5" y="220" as="targetPoint" />
          </mxGeometry>
        </mxCell>
        <mxCell id="UQys9rM_CPTPyQWlCEaO-159" value="" style="endArrow=none;html=1;rounded=0;entryX=1;entryY=1;entryDx=0;entryDy=0;" edge="1" source="UQys9rM_CPTPyQWlCEaO-155" target="UQys9rM_CPTPyQWlCEaO-152" parent="1">
          <mxGeometry width="50" height="50" relative="1" as="geometry">
            <mxPoint x="550.5" y="160" as="sourcePoint" />
            <mxPoint x="472.5" y="230" as="targetPoint" />
          </mxGeometry>
        </mxCell>
        <mxCell id="UQys9rM_CPTPyQWlCEaO-160" value="" style="endArrow=none;html=1;rounded=0;exitX=0.5;exitY=0;exitDx=0;exitDy=0;entryX=0.5;entryY=1;entryDx=0;entryDy=0;" edge="1" source="UQys9rM_CPTPyQWlCEaO-156" parent="1" target="UQys9rM_CPTPyQWlCEaO-152">
          <mxGeometry width="50" height="50" relative="1" as="geometry">
            <mxPoint x="565.5" y="223" as="sourcePoint" />
            <mxPoint x="502.5" y="260" as="targetPoint" />
          </mxGeometry>
        </mxCell>
        <mxCell id="UQys9rM_CPTPyQWlCEaO-166" value="" style="endArrow=none;html=1;rounded=0;" edge="1" parent="1">
          <mxGeometry width="50" height="50" relative="1" as="geometry">
            <mxPoint x="630" y="300" as="sourcePoint" />
            <mxPoint x="670" y="300" as="targetPoint" />
          </mxGeometry>
        </mxCell>
        <mxCell id="UQys9rM_CPTPyQWlCEaO-167" value="" style="endArrow=none;html=1;rounded=0;" edge="1" parent="1">
          <mxGeometry width="50" height="50" relative="1" as="geometry">
            <mxPoint x="600" y="-50" as="sourcePoint" />
            <mxPoint x="640" y="-50" as="targetPoint" />
          </mxGeometry>
        </mxCell>
      </root>
    </mxGraphModel>
  </diagram>
</mxfile>
